<svg xmlns="http://www.w3.org/2000/svg" viewBox="0 0 191.88 174.86"><title>logo</title><g id="UNI"><path d="M11.05,125.92c-.14,1.41-.29,2.85-.48,4.27l-.06.44h-2v-.26l-.17,0c-.2,0-.49,0-.78-.07s-.63,0-.84-.07l-.51-.07.08-.5c.85-5.24,1.13-9.25,1.32-11.9,0-.6.07-1.21.11-1.83a63.43,63.43,0,0,1,1.38-11c.2-.9.53-2,.77-2.74.1-.31.18-.58.24-.78l0-2.35a4.14,4.14,0,0,1,0-7l.32-45L.85,42.62l94-41.39,95.36,41.49-39,16.49L151,69.77l-.41.3h-.36a28.44,28.44,0,0,0-9.41-1.59h-.38a28.72,28.72,0,0,0-9.53,1.77l-.15,0-.33-.09-.18-.17c-1.31-1.9-13.42-18.61-35.07-18.9h-.56C71.54,51.14,58.83,70.21,58.3,71l-.15.23-.32,0h-.07l-.08,0a34.47,34.47,0,0,0-8.74-1.13h-.49a34.59,34.59,0,0,0-7.58,1l-.06,0h-.24L40.4,71a.67.67,0,0,1-.22-.29c0-.11,0-.15-.17-13.62V57l.06-.12a39.58,39.58,0,0,1,13.61-15.1c14.09-9,31.08-11.64,41.34-12.4h0c-19.75,0-50.45,7.93-56.72,22.82a20.2,20.2,0,0,0-1.42,5.48l-.08.66L14.81,49l-.09,43.18a4.13,4.13,0,0,1,1.83,3.44,4.18,4.18,0,0,1-1.84,3.45v3.37a45.79,45.79,0,0,1,1.54,7.5,46.64,46.64,0,0,1,.31,5.82c0,.5,0,1,0,1.5a58.21,58.21,0,0,0,1.64,12.22l.13.54-3.56.47-.74-4.6v4.62l-2.86.17Z" transform="translate(0.37 -0.68)" style="fill:#eeae50"/><path d="M94.88,1.78,189,42.72,150.71,58.88l-.21,10.64-.11.08A29,29,0,0,0,140.82,68h-.4a29.31,29.31,0,0,0-9.69,1.8l-.08,0c-1.27-1.85-13.48-18.83-35.48-19.12h-.56c-23,0-35.74,18.58-36.73,20.11a.05.05,0,0,1-.05,0h0a34.81,34.81,0,0,0-8.86-1.15h-.5a34.78,34.78,0,0,0-7.68,1h0l0,0a.07.07,0,0,1,0,0s0-1.67-.15-13.47c4.42-8.17,9.56-12.45,13.43-14.91,18.38-11.71,41.57-12.61,48.41-12.61,1.26,0,2,0,2,0h0A52.38,52.38,0,0,0,95,28.84c-20.26,0-50.91,8.24-57.18,23.12a21,21,0,0,0-1.46,5.62l-22-9.36-.09,44.22a3.65,3.65,0,0,1,0,6.33v3.73A45.21,45.21,0,0,1,15.74,110a63,63,0,0,1,.33,7.27,58.71,58.71,0,0,0,1.65,12.33l-2.53.33-1.65-10.35V130l-1.87.11-.33-11.67c-.51,3.89-.75,7.78-1.27,11.67H9c.22-3.19.7-10.79.92-14-.56,3.09-1,10.61-1.54,13.7-.42,0-1.21-.08-1.63-.13a119,119,0,0,0,1.32-12,73.63,73.63,0,0,1,1.49-12.71c.28-1.27.83-2.88,1-3.56l0-2.7a3.64,3.64,0,0,1,0-6.42L11,46.76,2.06,42.64,94.88,1.78m0-1.1-.41.18L1.66,41.72l-2,.89,2,.93,5,2.31L10,47.4,9.64,91.82a4.64,4.64,0,0,0-.06,7.52v2c-.06.19-.13.43-.21.7-.25.78-.58,1.86-.79,2.78a64.72,64.72,0,0,0-1.39,11c0,.62-.07,1.23-.11,1.82-.19,2.64-.47,6.64-1.31,11.86l-.17,1,1,.14c.22,0,.55,0,.88.07l.45,0,0,.32H10.7v.06l1-.06.9-.06,1,0,.75-.05V131l1-.13,2.53-.33,1.11-.14-.26-1.08a58,58,0,0,1-1.63-12.13c0-.5,0-1,0-1.49a47.48,47.48,0,0,0-.31-5.87,47,47,0,0,0-1.54-7.51v-3a4.65,4.65,0,0,0,0-7.4l.09-42.18,8,3.39L35.94,58.5l1.23.52.15-1.33a20,20,0,0,1,1.39-5.34C41.42,45.93,49.5,40,61.47,35.76a103.75,103.75,0,0,1,15.9-4.21,79,79,0,0,0-24,9.77A40.1,40.1,0,0,0,39.63,56.61l-.12.22v.26c.13,13.56.13,13.56.2,13.78a1,1,0,0,0,.39.53l.26.19.37,0a1.09,1.09,0,0,0,.26,0,34.18,34.18,0,0,1,7.46-1h.49a33.84,33.84,0,0,1,8.61,1.11l.12,0h.16a1.07,1.07,0,0,0,.89-.48c.52-.81,13.09-19.66,35.89-19.66h.55c21.4.29,33.37,16.8,34.67,18.68l.2.3.35.1.31.09.39-.09A27.91,27.91,0,0,1,140.44,69h.38a28,28,0,0,1,9.24,1.56l.5.17.42-.31.11-.08.4-.29v-.49l.05-2.66.15-7.33,37.66-15.91,2.15-.91-2.14-.93L112.86,8.51,95.28.86l-.4-.18Z" transform="translate(0.37 -0.68)" style="fill:#eeae50"/></g><g id="Outer"><path d="M165.65,91.34c-6.68-14.27-24.9-21.67-39.8-14.61C115.51,55.94,93.28,56.92,93.28,56.92c-10.65-.49-27.85,8-33.12,21.21C32,68.12,17.22,90.85,16.65,104.49c-.24,5.82,1.63,26,23.62,31.83v34.17c1.68-1.21,4.22-3,5.78-4,21.31-13.82,44.6-17.8,64.16-18a107.11,107.11,0,0,0-62.86,8.77l-.16-20.71a15.2,15.2,0,0,0,2.36-.24c7.54-1.37,14.09-9.66,14-12.83-10.84,12.26-40,8.12-40-19.16C24,85.09,49.39,75.76,63.55,88c4.73-18,22.21-24.4,31.11-24.19,13.92.32,32.71,12.24,24.18,34.42,4-4.24,5.48-7.6,6.68-13.15,21.74-11.61,32.26,5.4,34.14,9.38,5,10.64-1.67,25.7-12.67,29.06-7.71,2.36-14.9-1.79-16.66-2.88a20.68,20.68,0,0,0,3.83,4.16,21.27,21.27,0,0,0,7.57,4q.08,15.54.16,31.09c-.76-.22-3.87-.81-4.64-1-27.76-3.85-61.88-4.21-90.95,16.13H148.89v-45C164.91,123.85,172.61,106.18,165.65,91.34Z" transform="translate(0.37 -0.68)" style="fill:#eeae50;stroke:#eeae50;stroke-miterlimit:10"/><path d="M64.62,120.58" transform="translate(0.37 -0.68)" style="fill:#eeae50;stroke:#eeae50;stroke-miterlimit:10"/></g></svg>