<svg xmlns="http://www.w3.org/2000/svg" viewBox="0 0 299.15 274.3"><title>logo-dark</title><g id="Outer"><path d="M118.72,300l-.21,2.06c-.29,3-.59,6.14-1,9.21l-.06.43h-2.68s.06-.81.07-1c0,0-.11.59-.11.59l-.47-.07c-.32,0-.79-.07-1.25-.1s-1-.07-1.31-.11l-.51-.07.09-.51c1.34-8.26,1.78-14.58,2.07-18.75q.09-1.41.18-2.88a99,99,0,0,1,2.17-17.21c.31-1.4.83-3.07,1.21-4.29.15-.51.29-.94.38-1.26l0-3.9a6.23,6.23,0,0,1,.07-10.69l.5-71.18-14.71-6.83,147.3-64.84,149.37,65-61,25.76L338.53,216l-.56.41-.27-.07a45.27,45.27,0,0,0-14.9-2.52h-.62a45.39,45.39,0,0,0-15.08,2.79l-.15.06-.33-.09-.23-.19c-2.07-3-21.23-29.41-55.43-29.87h-.89c-36.46,0-56.55,30.14-57.39,31.43l-.15.22-.35.05-.16,0a54.33,54.33,0,0,0-13.83-1.79h-.78a53.85,53.85,0,0,0-12,1.51l-.06,0h-.09a.64.64,0,0,1-.36-.11l-.14-.1-.1-.22c0-.12-.06-.18-.25-21.35v-.13l.06-.12c5.59-10.35,12.56-18.09,21.31-23.66C211.34,156,242.93,153,257.37,152.46q-3.19-.21-6.73-.21c-31.17,0-79.62,12.54-89.54,36.08a33.29,33.29,0,0,0-2.26,8.7l-.07.66L124.19,183l-.14,68.56a6.21,6.21,0,0,1,2.88,5.26,6.3,6.3,0,0,1-2.9,5.27v5.51a71.7,71.7,0,0,1,2.42,11.79,74.74,74.74,0,0,1,.49,9.11l0,2.38a91.77,91.77,0,0,0,2.59,19.3l.13.54-5,.65L123,300.83v10.63l-3.93.23Z" transform="translate(-101.98 -108.05)" style="fill:#19515c"/><path d="M250.5,109.14l148.09,64.44L338.37,199,338,215.76l-.17.13a45.91,45.91,0,0,0-15.07-2.55h-.62a45.72,45.72,0,0,0-15.26,2.83l-.12,0c-2-2.91-21.23-29.63-55.84-30.08h-.89c-36.28,0-56.24,29.25-57.81,31.65a.1.1,0,0,1-.08.05h0a55.25,55.25,0,0,0-13.95-1.8h-.78a54.22,54.22,0,0,0-12.1,1.53h0l-.08,0a.17.17,0,0,1,0-.07s-.06-2.63-.23-21.2c6.95-12.86,15-19.6,21.14-23.48,28.92-18.41,65.42-19.84,76.19-19.84,2,0,3.09,0,3.13,0h0a82.28,82.28,0,0,0-14.75-1.17c-31.88,0-80.13,13-90,36.38a33.11,33.11,0,0,0-2.29,8.84l-34.66-14.73-.14,69.6a5.74,5.74,0,0,1,0,10v5.86a71.36,71.36,0,0,1,2.42,11.78,95.56,95.56,0,0,1,.52,11.44,92.12,92.12,0,0,0,2.6,19.4l-4,.52q-1.31-8.15-2.6-16.28V311l-3,.17q-.25-9.18-.52-18.37c-.81,6.13-1.18,12.25-2,18.37h-1.7c.34-5,1.09-17,1.44-22-.88,4.87-1.54,16.71-2.43,21.58-.65-.09-1.9-.13-2.55-.22,1.33-8.18,1.77-14.35,2.08-18.8.38-5.41.43-11.46,2.34-20,.44-2,1.3-4.52,1.6-5.59l0-4.25a5.74,5.74,0,0,1,.07-10.12l.51-71.79-14-6.5L250.5,109.14m0-1.09-.4.18L104,172.54l-2,.89,2,.93,8.62,4,4.79,2.22-.49,70.59a6.73,6.73,0,0,0-.08,11.24l0,3.56c-.09.31-.21.71-.36,1.18-.38,1.23-.9,2.91-1.22,4.33A100.15,100.15,0,0,0,113,288.77c-.06,1-.11,1.94-.18,2.87-.29,4.17-.73,10.47-2.07,18.71l-.16,1,1,.13c.35.05.83.08,1.34.12s.92.06,1.21.1h.07l0,.43h3.65l.11-.87c.16-1.17.3-2.35.43-3.53l.09,3.43,0,1,1-.06,1.18-.07,1.77-.11.94-.05v-4.79l.61,3.83.15,1,1-.13.29,0,3.69-.48,1.1-.15-.25-1.08a91.4,91.4,0,0,1-2.58-19.2l0-2.36a75.85,75.85,0,0,0-.49-9.17,73,73,0,0,0-2.42-11.81v-5.16a6.81,6.81,0,0,0,2.9-5.54,6.72,6.72,0,0,0-2.88-5.53l.14-67.54,15.94,6.78L158,197.89l1.23.53.15-1.33a32.31,32.31,0,0,1,2.23-8.57c4.31-10.26,17.15-19.64,36.15-26.42a169,169,0,0,1,46.65-9.2c-16.27,1.78-39.31,6.53-58.84,19-8.82,5.62-15.85,13.42-21.48,23.85l-.12.22v.26c.19,21.25.2,21.29.28,21.51a1.16,1.16,0,0,0,.41.56,1.13,1.13,0,0,0,.66.21h.12l.15,0a54,54,0,0,1,11.87-1.51h.77a54.26,54.26,0,0,1,13.7,1.77l.12,0h.17a1.1,1.1,0,0,0,.92-.5c.83-1.27,20.78-31.2,57-31.2H251c34,.45,53,26.67,55,29.66l.2.3.35.09.13,0,.31.09.3-.12a44.73,44.73,0,0,1,14.92-2.76h.61a44.91,44.91,0,0,1,14.74,2.49l.49.17.43-.31.1-.07.07-.05.4-.29v-.5l.32-16.1L399,174.5l2.15-.91-2.14-.93-57.52-25-90.58-39.4-.4-.18Z" transform="translate(-101.98 -108.05)" style="fill:#19515c"/><path d="M361.89,250.1c-10.52-22.44-39.19-34.09-62.65-23C283,194.4,248,195.93,248,195.93c-16.75-.76-43.83,12.65-52.12,33.4-44.25-15.76-67.58,20-68.48,41.48-.38,9.16,2.57,40.89,37.17,50.09v53.79c2.65-1.91,6.65-4.66,9.1-6.25,33.55-21.76,70.21-28,101-28.37a168.8,168.8,0,0,0-98.94,13.8l-.26-32.58a24.34,24.34,0,0,0,3.72-.39c11.86-2.15,22.17-15.2,22.06-20.19-17.06,19.3-62.94,12.78-62.94-30.15.64-30.29,40.63-45,62.92-25.69,7.44-28.37,34.95-38.4,49-38.08,21.92.51,51.49,19.27,38.07,54.18,6.24-6.67,8.61-12,10.51-20.7,34.21-18.27,50.78,8.51,53.72,14.77,7.89,16.75-2.62,40.45-19.94,45.74-12.13,3.71-23.44-2.83-26.22-4.54a33.4,33.4,0,0,0,6,6.56,33.86,33.86,0,0,0,11.92,6.35q.12,24.47.26,48.94c-1.19-.36-6.09-1.29-7.3-1.61-43.7-6.07-97.39-6.63-143.16,25.38H335.51v-70.8C360.72,301.27,372.83,273.47,361.89,250.1Z" transform="translate(-101.98 -108.05)" style="fill:#19515c;stroke:#19515c;stroke-miterlimit:10"/><path d="M219,280.85" transform="translate(-101.98 -108.05)" style="fill:#19515c;stroke:#19515c;stroke-miterlimit:10"/></g></svg>